<svg width="64" height="44" viewBox="0 0 64 44" fill="none" xmlns="http://www.w3.org/2000/svg">
<path d="M60.6222 17.7778H3.37778C1.51228 17.7778 0 19.2901 0 21.1555V21.5111C0 23.3766 1.51228 24.8889 3.37778 24.8889H60.6222C62.4877 24.8889 64 23.3766 64 21.5111V21.1555C64 19.2901 62.4877 17.7778 60.6222 17.7778Z" fill="#C92519"/>
<path d="M60.6222 36H3.37778C1.51228 36 0 37.5123 0 39.3778V39.7333C0 41.5988 1.51228 43.1111 3.37778 43.1111H60.6222C62.4877 43.1111 64 41.5988 64 39.7333V39.3778C64 37.5123 62.4877 36 60.6222 36Z" fill="#C92519"/>
<path d="M60.6222 0H3.37778C1.51228 0 0 1.51228 0 3.37778V3.73333C0 5.59883 1.51228 7.11111 3.37778 7.11111H60.6222C62.4877 7.11111 64 5.59883 64 3.73333V3.37778C64 1.51228 62.4877 0 60.6222 0Z" fill="#C92519"/>
</svg>
