<svg width="46" height="46" viewBox="0 0 46 46" fill="none" xmlns="http://www.w3.org/2000/svg">
<path d="M28.3191 22.9281L44.7397 6.54568C45.4587 5.8266 45.8627 4.85131 45.8627 3.83437C45.8627 2.81743 45.4587 1.84215 44.7397 1.12306C44.0206 0.403978 43.0453 0 42.0284 0C41.0114 0 40.0361 0.403978 39.317 1.12306L22.9346 17.5437L6.5522 1.12306C5.83312 0.403978 4.85783 -7.57678e-09 3.84089 0C2.82395 7.57679e-09 1.84866 0.403978 1.12958 1.12306C0.410495 1.84215 0.00651708 2.81743 0.00651707 3.83437C0.00651707 4.85131 0.410495 5.8266 1.12958 6.54568L17.5502 22.9281L1.12958 39.3105C0.771654 39.6655 0.487562 40.0879 0.293689 40.5532C0.0998162 41.0186 0 41.5177 0 42.0218C0 42.526 0.0998162 43.0251 0.293689 43.4904C0.487562 43.9558 0.771654 44.3781 1.12958 44.7331C1.48458 45.0911 1.90694 45.3752 2.37229 45.569C2.83764 45.7629 3.33677 45.8627 3.84089 45.8627C4.34501 45.8627 4.84414 45.7629 5.30949 45.569C5.77484 45.3752 6.1972 45.0911 6.5522 44.7331L22.9346 28.3125L39.317 44.7331C39.6721 45.0911 40.0944 45.3752 40.5598 45.569C41.0251 45.7629 41.5242 45.8627 42.0284 45.8627C42.5325 45.8627 43.0316 45.7629 43.497 45.569C43.9623 45.3752 44.3847 45.0911 44.7397 44.7331C45.0976 44.3781 45.3817 43.9558 45.5756 43.4904C45.7694 43.0251 45.8692 42.526 45.8692 42.0218C45.8692 41.5177 45.7694 41.0186 45.5756 40.5532C45.3817 40.0879 45.0976 39.6655 44.7397 39.3105L28.3191 22.9281Z" fill="#C92519"/>
</svg>
