<svg width="64" height="28" viewBox="0 0 64 28" fill="none" xmlns="http://www.w3.org/2000/svg">
<path fill-rule="evenodd" clip-rule="evenodd" d="M6.10433 12.0042H1.68758V0.766287H6.08759C9.58419 0.766287 12.0101 3.00713 12.0101 6.37681C12.0101 9.78018 9.58419 12.0042 6.10433 12.0042ZM6.08759 9.89812C8.29597 9.89812 9.58419 8.29752 9.58419 6.37681C9.58419 4.40554 8.37962 2.87234 6.10433 2.87234H4.06325V9.89812H6.08759ZM17.4473 12.2064C14.988 12.2064 13.131 10.5384 13.131 7.92686C13.131 5.56808 14.8709 3.66421 17.3135 3.66421C19.7394 3.66421 21.3622 5.48384 21.3622 8.12904V8.63449H15.3561C15.5066 9.62855 16.3097 10.4541 17.6816 10.4541C18.3675 10.4541 19.3044 10.1677 19.823 9.66225L20.7766 11.0775C19.9736 11.8188 18.7021 12.2064 17.4473 12.2064ZM19.3211 7.15183C19.2542 6.37681 18.7188 5.41645 17.3135 5.41645C15.9918 5.41645 15.423 6.34311 15.3393 7.15183H19.3211ZM25.1766 12.2064C23.6877 12.2064 22.9013 11.4313 22.9013 9.96552V0.766287H25.0261V9.39267C25.0261 9.91497 25.2937 10.3025 25.7622 10.3025C26.0801 10.3025 26.3812 10.1845 26.4983 10.0498L26.95 11.6841C26.6322 11.9705 26.0466 12.2064 25.1766 12.2064ZM28.9409 2.99028C28.255 2.99028 27.6862 2.41743 27.6862 1.7098C27.6862 1.00216 28.255 0.446167 28.9409 0.446167C29.6436 0.446167 30.2124 1.00216 30.2124 1.7098C30.2124 2.41743 29.6436 2.99028 28.9409 2.99028ZM30.0116 12.0042H27.8869V3.86639H30.0116V12.0042ZM36.5029 12.0042H34.2109L30.9653 3.86639H33.2405L35.3485 9.52746L37.4733 3.86639H39.7486L36.5029 12.0042ZM44.4999 12.2064C42.0406 12.2064 40.1835 10.5384 40.1835 7.92686C40.1835 5.56808 41.9235 3.66421 44.3661 3.66421C46.7919 3.66421 48.4147 5.48384 48.4147 8.12904V8.63449H42.4086C42.5592 9.62855 43.3623 10.4541 44.7341 10.4541C45.4201 10.4541 46.3569 10.1677 46.8756 9.66225L47.8292 11.0775C47.0262 11.8188 45.7547 12.2064 44.4999 12.2064ZM46.3737 7.15183C46.3068 6.37681 45.7714 5.41645 44.3661 5.41645C43.0444 5.41645 42.4756 6.34311 42.3919 7.15183H46.3737ZM52.0786 12.0042H49.9539V3.86639H52.0786V4.96154C52.6642 4.25391 53.6513 3.66421 54.6551 3.66421V5.75342C54.5045 5.71972 54.3205 5.70287 54.0695 5.70287C53.3669 5.70287 52.43 6.10723 52.0786 6.62953V12.0042ZM59.2559 15.3065C57.9007 15.3065 56.8133 14.919 55.8764 14.0934L56.83 12.5602C57.4155 13.2678 58.4026 13.5542 59.2559 13.5542C60.6277 13.5542 61.4308 12.6107 61.4308 11.465V10.6226C60.8787 11.2291 59.9083 11.8525 58.5866 11.8525C56.8133 11.8525 55.9768 10.8753 55.9768 9.29158V3.86639H58.1015V8.44916C58.1015 9.578 58.687 9.94867 59.5905 9.94867C60.4102 9.94867 61.0627 9.49376 61.4308 9.02201V3.86639H63.5555V11.465C63.5555 13.908 61.8323 15.3065 59.2559 15.3065ZM6.91954 27.5231C3.55679 27.5231 0.963623 25.1643 0.963623 21.7104C0.963623 18.2396 3.55679 15.8977 6.91954 15.8977C9.36213 15.8977 10.7842 17.2287 11.5705 18.644L9.52943 19.6549C9.06099 18.7451 8.05718 18.0206 6.91954 18.0206C4.87847 18.0206 3.40622 19.5875 3.40622 21.7104C3.40622 23.8333 4.87847 25.4002 6.91954 25.4002C8.05718 25.4002 9.06099 24.6757 9.52943 23.7659L11.5705 24.76C10.7842 26.1584 9.36213 27.5231 6.91954 27.5231ZM15.4063 27.5231C13.9173 27.5231 13.131 26.7481 13.131 25.2823V16.083H15.2557V24.7094C15.2557 25.2317 15.5234 25.6192 15.9918 25.6192C16.3097 25.6192 16.6108 25.5013 16.7279 25.3665L17.1797 27.0008C16.8618 27.2872 16.2762 27.5231 15.4063 27.5231ZM25.6953 27.3209H23.5706V26.2932C23.0185 26.8997 22.0481 27.5231 20.7264 27.5231C18.953 27.5231 18.1165 26.5459 18.1165 24.9621V19.1831H20.2413V24.1197C20.2413 25.2486 20.8268 25.6192 21.7302 25.6192C22.55 25.6192 23.2025 25.1643 23.5706 24.6926V19.1831H25.6953V27.3209ZM29.928 24.7094C30.2961 25.2317 31.0656 25.6192 31.7683 25.6192C32.9896 25.6192 33.8094 24.6589 33.8094 23.2436C33.8094 21.8452 32.9896 20.8848 31.7683 20.8848C31.0656 20.8848 30.2961 21.2892 29.928 21.8283V24.7094ZM29.928 27.3209H27.8033V16.083H29.928V20.2277C30.5637 19.3853 31.4672 18.9809 32.4208 18.9809C34.4786 18.9809 36.001 20.5984 36.001 23.2436C36.001 25.973 34.4618 27.5231 32.4208 27.5231C31.4504 27.5231 30.5637 27.085 29.928 26.2763V27.3209Z" fill="white"/>
</svg>
