<?xml version="1.0" encoding="UTF-8"?><svg xmlns="http://www.w3.org/2000/svg" viewBox="0 0 237.04 112.69"><defs><style>.e,.f{fill:#fff;}.g{font-size:82.96px;}.g,.f{font-family:Queensila, Queensila;}.g,.h{fill:#c92519;}.f{font-size:41.48px;}</style></defs><g id="a"/><g id="b"><g id="c"><g id="d"><path class="h" d="M40.52,63.63c-8.29-.05-17.92-.91-27.32-3.56-3.27-.92-6.44-2.11-9.34-3.92-1.05-.66-2-1.43-2.79-2.38-1.44-1.74-1.45-3.68,.03-5.42,1.67-1.96,3.9-3.16,6.21-4.15,6.78-2.9,13.96-4.19,21.23-4.97,5.52-.6,11.06-.89,16.61-.68,9.71,.37,19.34,1.32,28.59,4.55,2.49,.87,4.89,1.92,7.05,3.46,4.11,2.93,4.12,6.16-.05,9.07-3.85,2.69-8.27,4.05-12.77,5.15-8.55,2.08-17.26,2.84-27.48,2.85Zm6-22.44c-.73,0-1.14,.54-1.58,.99-2.98,2.97-5.95,5.94-8.92,8.91-2.35,2.35-4.71,4.7-7.05,7.07-.63,.64-.99,1.43-.24,2.15,.66,.64,1.41,.32,2.03-.23,.18-.15,.34-.32,.51-.48,5.16-5.16,10.32-10.32,15.48-15.48,.33-.33,.69-.67,.89-1.07,.46-.92-.13-1.86-1.11-1.86Zm-7.64,19.42c.81,.04,1.26-.54,1.75-1.03,4.63-4.62,9.26-9.25,13.87-13.88,.36-.37,.74-.78,.94-1.24,.25-.57,.1-1.15-.43-1.57-.49-.38-.99-.31-1.45,.03-.37,.27-.72,.59-1.05,.92-4.59,4.58-9.17,9.17-13.75,13.76-.37,.37-.76,.76-1,1.21-.48,.91,.1,1.78,1.13,1.81Zm-.3-18.13c-.03-.54-.28-1.01-.82-1.2-.85-.31-1.45,.18-2.01,.73-4.74,4.74-9.49,9.48-14.22,14.23-.73,.73-1.44,1.62-.47,2.55,.94,.91,1.72,.05,2.37-.6,4.75-4.73,9.49-9.48,14.23-14.22,.41-.41,.82-.83,.92-1.48Zm9.39,18.13c.81,.01,1.24-.39,1.66-.8,4.29-4.29,8.58-8.58,12.87-12.88,.2-.2,.41-.43,.54-.68,.3-.55,.36-1.14-.11-1.62-.47-.48-1.07-.44-1.61-.12-.35,.2-.64,.5-.93,.79-4.17,4.16-8.34,8.33-12.5,12.5-.37,.37-.8,.71-.9,1.27-.16,.9,.15,1.48,.98,1.54Zm24.67-15.06c0-.52-.25-.91-.71-1.11-.82-.37-1.45,0-2.03,.57-3.79,3.8-7.59,7.6-11.39,11.39-.68,.68-1.13,1.52-.41,2.31,.88,.96,1.71,.25,2.39-.43,3.76-3.75,7.52-7.5,11.27-11.26,.41-.41,.82-.84,.88-1.47ZM14.22,57.6c.66-.12,1.13-.66,1.62-1.15,3.59-3.59,7.18-7.18,10.77-10.77,.29-.29,.57-.59,.82-.9,.48-.6,.41-1.2-.12-1.72-.48-.48-1.04-.51-1.58-.11-.38,.27-.72,.59-1.05,.92-3.55,3.54-7.1,7.09-10.64,10.65-.37,.37-.76,.75-.98,1.21-.45,.94,.15,1.92,1.17,1.88Zm2.66-12.06c-.01-.52-.26-.9-.73-1.09-.77-.32-1.34,.07-1.86,.58-2.27,2.26-4.53,4.52-6.79,6.79-.64,.64-1.31,1.37-.51,2.25,.89,.97,1.69,.3,2.38-.38,2.23-2.22,4.45-4.44,6.67-6.67,.41-.41,.81-.84,.85-1.48Zm60.37,4.6c-.01-.52-.26-.9-.72-1.11-.69-.31-1.24-.01-1.73,.47-1.82,1.81-3.64,3.62-5.44,5.44-.65,.65-1.24,1.4-.38,2.25,.86,.86,1.6,.26,2.25-.39,1.78-1.76,3.55-3.54,5.32-5.32,.37-.37,.73-.77,.7-1.35Z"/><path class="e" d="M47.94,84.24c-1.68,.18-1.58-1.01-1.53-2.07,.11-2.32-.62-4.17-2.85-5.13-2.73-1.18-5.8,.84-6.04,3.9-.26,3.23-.27,3.33-3.48,3.01-9.09-.91-17.53-3.51-24.39-9.89-4.4-4.09-7.15-9.18-8.66-14.96-.1-.39-.32-.86,.06-1.15,.4-.31,.76,.11,1.09,.31,6.89,4.24,14.63,5.71,22.45,6.87,7.53,1.12,15.13,1.38,22.72,1.05,9.89-.43,19.67-1.59,29.01-5.17,1.86-.71,3.64-1.59,5.33-2.64,.37-.23,.76-.76,1.22-.41,.42,.33,.12,.87,0,1.31-1.93,7.35-5.98,13.25-12.18,17.66-6.03,4.29-12.95,6.05-20.14,7.02-.87,.12-1.74,.19-2.61,.29Z"/><path class="e" d="M43.76,91.21c0,2.98,.01,5.95,0,8.93,0,1.26-.07,2.66-1.76,2.7-1.7,.05-1.85-1.32-1.85-2.6-.01-6.07,0-12.14,0-18.21,0-1.24,.19-2.51,1.75-2.53,1.69-.03,1.85,1.33,1.86,2.61,.03,3.04,0,6.07,0,9.11Z"/><path class="e" d="M50.17,33.27c-1.33,0-2.24-1.53-1.36-2.65,1.61-2.03,1.21-3.73-.07-5.73-1.36-2.1-1.13-4.41,.29-6.43,1.17-1.67,2.55-3.19,3.87-4.75,.72-.85,1.66-1.22,2.61-.45,.97,.78,.74,1.78,.06,2.64-.9,1.15-1.86,2.25-2.8,3.37-1.67,1.99-1.72,2.78-.34,4.99,1.73,2.76,1.48,5.67-.67,8.06-.45,.49-.92,.89-1.62,.94Z"/><path class="e" d="M35.97,12.9c1.44,.05,2.09,1.5,1.14,2.84-.87,1.23-1.91,2.36-2.88,3.52-1.64,1.96-1.71,2.87-.37,4.99,1.77,2.81,1.48,5.86-.75,8.19-.72,.75-1.53,1.17-2.47,.49-1-.73-.97-1.73-.26-2.61,1.36-1.67,1.19-3.21,.05-4.95-1.59-2.42-1.42-5.1,.31-7.35,1.1-1.43,2.3-2.8,3.46-4.18,.46-.55,.99-1,1.78-.96Z"/><path class="e" d="M45.11,12.9c.7-.01,1.23,.28,1.58,.9,.36,.64,.25,1.27-.17,1.8-.97,1.24-1.99,2.44-2.99,3.66-1.81,2.23-1.83,2.65-.3,5.09,1.61,2.57,1.27,5.93-.82,8.07-.76,.78-1.62,1.25-2.6,.44-.95-.79-.85-1.77-.1-2.62,1.39-1.58,1.24-3.05,.1-4.74-1.7-2.52-1.58-5.06,.25-7.48,1.12-1.49,2.37-2.88,3.57-4.31,.39-.46,.84-.81,1.48-.81Z"/><path class="e" d="M70.02,80.72c.59-.09,.83,.36,1.04,.76,2.3,4.39,4.59,8.78,6.85,13.19,.5,.97,.28,1.87-.72,2.38-1.03,.53-1.84,.05-2.33-.88-2.32-4.38-4.63-8.76-6.9-13.16-.47-.92,.75-2.23,2.06-2.29Z"/><path class="e" d="M5.75,95.15c.17-.37,.36-.86,.6-1.32,2.03-3.93,4.11-7.84,6.09-11.79,.62-1.24,1.21-1.58,2.55-.88,1.33,.69,1.23,1.38,.63,2.48-2.18,4.05-4.29,8.13-6.44,12.2-.46,.88-1.07,1.59-2.19,1.29-.9-.24-1.29-.93-1.25-1.99Z"/></g><text class="g" transform="translate(94.58 70.52)"><tspan x="0" y="0">Alga</tspan></text><text class="f" transform="translate(94.58 102.93)"><tspan x="0" y="0">cafe</tspan></text></g></g></svg>