<svg width="28" height="28" viewBox="0 0 28 28" fill="none" xmlns="http://www.w3.org/2000/svg">
<path d="M15.3333 8.66673C16.3942 8.66673 17.4116 9.08815 18.1618 9.8383C18.9119 10.5884 19.3333 11.6059 19.3333 12.6667C19.3333 13.0203 19.4738 13.3595 19.7239 13.6095C19.9739 13.8596 20.313 14.0001 20.6667 14.0001C21.0203 14.0001 21.3594 13.8596 21.6095 13.6095C21.8595 13.3595 22 13.0203 22 12.6667C22 10.8986 21.2976 9.20293 20.0474 7.95268C18.7971 6.70244 17.1014 6.00006 15.3333 6.00006C14.9797 6.00006 14.6406 6.14054 14.3905 6.39059C14.1405 6.64063 14 6.97977 14 7.33339C14 7.68702 14.1405 8.02615 14.3905 8.2762C14.6406 8.52625 14.9797 8.66673 15.3333 8.66673Z" fill="#C92519"/>
<path d="M15.3333 3.33335C17.8087 3.33335 20.1827 4.31668 21.933 6.06702C23.6833 7.81736 24.6667 10.1913 24.6667 12.6667C24.6667 13.0203 24.8071 13.3594 25.0572 13.6095C25.3072 13.8595 25.6464 14 26 14C26.3536 14 26.6928 13.8595 26.9428 13.6095C27.1929 13.3594 27.3333 13.0203 27.3333 12.6667C27.3333 9.48409 26.069 6.43184 23.8186 4.18141C21.5682 1.93097 18.5159 0.666687 15.3333 0.666687C14.9797 0.666687 14.6406 0.807163 14.3905 1.05721C14.1405 1.30726 14 1.6464 14 2.00002C14 2.35364 14.1405 2.69278 14.3905 2.94283C14.6406 3.19288 14.9797 3.33335 15.3333 3.33335Z" fill="#C92519"/>
<path d="M27 19.2134C26.9266 18.9993 26.8 18.8074 26.6321 18.6558C26.4641 18.5042 26.2604 18.3978 26.04 18.3467L18.04 16.52C17.8228 16.4708 17.5968 16.4767 17.3825 16.5373C17.1682 16.5978 16.9726 16.7111 16.8133 16.8667C16.6266 17.04 16.6133 17.0534 15.7466 18.7067C12.8709 17.3816 10.5666 15.0678 9.25329 12.1867C10.9466 11.3334 10.96 11.3334 11.1333 11.1334C11.2889 10.9741 11.4022 10.7784 11.4627 10.5641C11.5233 10.3499 11.5292 10.1238 11.48 9.90669L9.65329 2.00002C9.60215 1.77961 9.49577 1.57585 9.34415 1.4079C9.19253 1.23996 9.00067 1.11336 8.78663 1.04002C8.47525 0.928806 8.15371 0.848421 7.82663 0.80002C7.48963 0.721881 7.14574 0.677219 6.79996 0.666687C5.1733 0.666687 3.61326 1.31288 2.46304 2.4631C1.31281 3.61332 0.666626 5.17336 0.666626 6.80002C0.673682 12.2436 2.83927 17.4623 6.68849 21.3115C10.5377 25.1607 15.7563 27.3263 21.2 27.3334C22.0054 27.3334 22.803 27.1747 23.5471 26.8665C24.2912 26.5583 24.9673 26.1065 25.5369 25.5369C26.1064 24.9674 26.5582 24.2913 26.8664 23.5471C27.1746 22.803 27.3333 22.0055 27.3333 21.2C27.3337 20.8606 27.307 20.5218 27.2533 20.1867C27.1973 19.8555 27.1125 19.5298 27 19.2134Z" fill="#C92519"/>
</svg>
