<svg width="23" height="30" viewBox="0 0 23 30" fill="none" xmlns="http://www.w3.org/2000/svg">
<path d="M11.2311 13.145C12.3941 13.145 13.3369 12.1641 13.3369 10.9541C13.3369 9.74418 12.3941 8.76331 11.2311 8.76331C10.0681 8.76331 9.12526 9.74418 9.12526 10.9541C9.12526 12.1641 10.0681 13.145 11.2311 13.145Z" fill="#C92519"/>
<path d="M11.231 1.46269e-08C8.27174 -0.000153928 5.43197 1.21483 3.32894 3.38088C1.22591 5.54694 0.029593 8.48899 0 11.5676C0 19.5715 9.89736 28.4809 10.3185 28.8606C10.5728 29.0869 10.8964 29.2112 11.231 29.2112C11.5657 29.2112 11.8893 29.0869 12.1436 28.8606C12.6349 28.4809 22.4621 19.5715 22.4621 11.5676C22.4325 8.48899 21.2362 5.54694 19.1332 3.38088C17.0301 1.21483 14.1903 -0.000153928 11.231 1.46269e-08ZM11.231 16.0661C10.2592 16.0661 9.30924 15.7663 8.50121 15.2046C7.69317 14.6429 7.06338 13.8445 6.69149 12.9104C6.31959 11.9763 6.22228 10.9485 6.41188 9.95688C6.60147 8.96526 7.06944 8.0544 7.75662 7.33948C8.4438 6.62456 9.31931 6.1377 10.2725 5.94045C11.2256 5.7432 12.2136 5.84444 13.1114 6.23135C14.0092 6.61826 14.7766 7.27347 15.3165 8.11413C15.8565 8.95478 16.1446 9.94312 16.1446 10.9542C16.1446 12.3099 15.6269 13.6102 14.7055 14.5689C13.784 15.5275 12.5342 16.0661 11.231 16.0661Z" fill="#C92519"/>
</svg>
