<svg width="32" height="32" viewBox="0 0 32 32" fill="none" xmlns="http://www.w3.org/2000/svg">
<g clip-path="url(#clip0_14_2)">
<path d="M0 16C0 8.956 0 5.43333 1.95933 3.07267C2.29521 2.66791 2.66791 2.29521 3.07267 1.95933C5.43333 0 8.956 0 16 0C23.044 0 26.5667 0 28.9273 1.95933C29.3321 2.29522 29.7048 2.66793 30.0407 3.07267C32 5.43333 32 8.956 32 16C32 23.044 32 26.5667 30.0407 28.9273C29.7048 29.3321 29.3321 29.7048 28.9273 30.0407C26.5667 32 23.044 32 16 32C8.956 32 5.43333 32 3.07267 30.0407C2.66793 29.7048 2.29522 29.3321 1.95933 28.9273C0 26.5667 0 23.044 0 16Z" fill="#FFE033"/>
<path d="M24.5007 22.3647C22.578 24.062 20.07 25.086 17.3327 25.086C11.5914 25.086 7.28936 20.6393 7.28936 15.5567C7.28936 10.7767 11.1 6.87467 15.8254 6.87467C20.284 6.87467 23.5014 10.332 23.5014 14.0747C23.5014 17.584 20.7334 20.43 17.3327 20.43C14.2214 20.43 12.0254 18.0727 12.0254 15.5567C12.0254 13.298 13.772 11.53 15.8267 11.53C17.6454 11.53 18.7667 12.856 18.7667 14.0747C18.7667 15.1333 18.0227 15.772 17.3334 15.772C17.0887 15.772 16.9954 15.7207 16.8974 15.66C17.12 15.3733 17.2307 15.002 17.174 14.614C17.1483 14.4365 17.0879 14.2658 16.9961 14.1117C16.9044 13.9575 16.7832 13.823 16.6394 13.7158C16.4956 13.6085 16.3321 13.5307 16.1582 13.4867C15.9844 13.4427 15.8035 13.4334 15.626 13.4593C14.9874 13.5547 14.582 13.9887 14.3814 14.3107C14.1508 14.6851 14.0302 15.1169 14.0334 15.5567C14.0334 17.3527 15.7067 18.5133 17.3334 18.5133C19.7074 18.5153 21.4934 16.4413 21.4934 14.0747C21.4934 11.1787 18.9834 8.78933 15.8267 8.78933C12.16 8.78933 9.2987 11.8933 9.2987 15.556C9.2987 19.708 12.838 23.1693 17.334 23.1693C22.3047 23.1693 26.2294 19.0307 26.2294 14.0733C26.2294 8.744 21.7174 4.13333 15.8267 4.13333C9.56003 4.13333 4.5647 9.3 4.5647 15.5567C4.5647 22.2367 10.1727 27.8273 17.334 27.8273C20.76 27.8273 23.9027 26.5407 26.3007 24.4247L24.5007 22.3647Z" fill="black"/>
</g>
<defs>
<clipPath id="clip0_14_2">
<rect width="32" height="32" fill="white"/>
</clipPath>
</defs>
</svg>
